<svg width="25" height="24" viewBox="0 0 25 24" fill="none" xmlns="http://www.w3.org/2000/svg">
<path d="M24 12.0746C24 5.40933 18.6241 0 12 0C5.3759 0 0 5.40933 0 12.0746C0 18.1057 4.38723 23.1047 10.1339 24V15.5565H7.069V12.0746H10.1339V9.41347C10.1339 6.39171 11.9135 4.71295 14.6571 4.71295C15.967 4.71295 17.3265 4.96166 17.3265 4.96166V7.90881H15.8187C14.3234 7.90881 13.8538 8.85389 13.8538 9.79896V12.0622H17.1905L16.6591 15.544H13.8538V23.9876C19.6128 23.1047 24 18.1057 24 12.0746Z" fill="#1877F2"/>
<path d="M16.6712 15.4646L17.2026 12.006H13.8658V9.75794C13.8658 8.80683 14.3478 7.88043 15.8308 7.88043H17.3385V4.94064C17.3385 4.94064 15.9791 4.6936 14.6691 4.6936C11.9255 4.6936 10.1459 6.36113 10.1459 9.36267V12.006H7.08105V15.4646H10.1459V23.8516C10.7515 23.9504 11.3818 23.9998 12.012 23.9998C12.6423 23.9998 13.2726 23.9504 13.8782 23.8516V15.4646H16.6712Z" fill="white"/>
</svg>
