<svg width="493" height="689" viewBox="0 0 493 689" fill="none" xmlns="http://www.w3.org/2000/svg">
<g clip-path="url(#clip0_3_26)">
<rect width="493" height="689" transform="matrix(1 0 0 -1 0 689)" fill="#8C8AFF"/>
<rect x="-4" y="-31" width="500" height="750" fill="#B2B1FF"/>
<path d="M410.885 131.838L400.661 86.9136H408.053L413.525 112.007C413.749 112.906 413.941 113.89 414.101 114.959C414.293 115.986 414.437 116.992 414.533 117.976C414.661 118.917 414.757 119.816 414.821 120.671C414.917 121.484 414.997 122.169 415.061 122.725L413.909 122.661C414.197 120.864 414.437 119.366 414.629 118.168C414.821 116.928 414.997 115.837 415.157 114.895C415.349 113.911 415.573 112.927 415.829 111.943L421.109 93.3956H427.061L432.245 111.943C432.629 113.227 432.933 114.467 433.157 115.665C433.413 116.821 433.621 117.954 433.781 119.067C433.941 120.136 434.101 121.227 434.261 122.34L433.205 122.597C433.301 121.698 433.365 120.928 433.397 120.286C433.461 119.602 433.509 118.981 433.541 118.425C433.605 117.869 433.669 117.313 433.733 116.756C433.797 116.157 433.893 115.473 434.021 114.703C434.149 113.89 434.341 112.948 434.597 111.879L440.021 86.9136H447.317L436.997 131.838H431.669L423.365 105.269L424.133 105.397L416.405 131.838H410.885Z" fill="white"/>
<path d="M381.131 132.48C378.667 132.48 376.395 131.902 374.315 130.747C372.235 129.592 370.411 127.988 368.843 125.934C367.307 123.837 366.123 121.377 365.291 118.553C364.459 115.687 364.043 112.585 364.043 109.248C364.043 105.868 364.459 102.787 365.291 100.006C366.123 97.1821 367.307 94.722 368.843 92.6255C370.411 90.529 372.235 88.9032 374.315 87.7479C376.395 86.5927 378.667 86.0151 381.131 86.0151C383.627 86.0151 385.899 86.5927 387.947 87.7479C390.027 88.9032 391.835 90.529 393.371 92.6255C394.939 94.722 396.139 97.1821 396.971 100.006C397.803 102.83 398.219 105.91 398.219 109.248C398.219 112.585 397.803 115.665 396.971 118.489C396.139 121.313 394.939 123.773 393.371 125.87C391.835 127.966 390.027 129.592 387.947 130.747C385.899 131.902 383.627 132.48 381.131 132.48ZM381.131 123.367C382.539 123.367 383.835 123.024 385.019 122.34C386.235 121.655 387.275 120.671 388.139 119.388C389.003 118.104 389.675 116.607 390.155 114.895C390.667 113.184 390.923 111.301 390.923 109.248C390.923 107.194 390.667 105.311 390.155 103.6C389.675 101.889 389.003 100.412 388.139 99.1716C387.275 97.8881 386.235 96.904 385.019 96.2194C383.835 95.4921 382.539 95.1284 381.131 95.1284C379.723 95.1284 378.427 95.4921 377.243 96.2194C376.059 96.904 375.019 97.8881 374.123 99.1716C373.227 100.412 372.539 101.889 372.059 103.6C371.611 105.311 371.387 107.194 371.387 109.248C371.387 111.301 371.611 113.184 372.059 114.895C372.539 116.607 373.227 118.104 374.123 119.388C375.019 120.671 376.059 121.655 377.243 122.34C378.427 123.024 379.723 123.367 381.131 123.367Z" fill="white"/>
<path d="M327.766 131.838V86.9136H334.198L352.774 120.479H351.43C351.302 119.152 351.19 117.869 351.094 116.628C350.998 115.344 350.902 114.061 350.806 112.777C350.742 111.451 350.678 110.103 350.614 108.734C350.582 107.322 350.55 105.846 350.518 104.306C350.486 102.723 350.47 101.011 350.47 99.1716V86.9136H357.526V131.838H350.998L332.038 97.9522L333.862 98.0164C334.022 100.241 334.15 102.145 334.246 103.728C334.374 105.269 334.47 106.616 334.534 107.771C334.598 108.927 334.646 109.932 334.678 110.788C334.742 111.644 334.774 112.456 334.774 113.227C334.806 113.997 334.822 114.81 334.822 115.665V131.838H327.766Z" fill="white"/>
<path d="M282.579 131.838V86.9136H305.283V95.3851H289.587V123.367H305.619V131.838H282.579ZM285.939 113.034V104.819H302.979V113.034H285.939Z" fill="white"/>
<path d="M253.469 131.838V86.9136H260.669V123.174H275.885V131.838H253.469Z" fill="white"/>
<path d="M230.965 132.223C228.245 132.223 225.813 131.475 223.669 129.977C221.557 128.437 219.893 126.34 218.677 123.688C217.461 120.992 216.853 117.954 216.853 114.574V86.8494H224.101V113.997C224.101 115.794 224.405 117.42 225.013 118.874C225.621 120.286 226.437 121.42 227.461 122.276C228.517 123.131 229.685 123.559 230.965 123.559C232.277 123.559 233.461 123.131 234.517 122.276C235.605 121.42 236.453 120.286 237.061 118.874C237.701 117.42 238.021 115.794 238.021 113.997V86.8494H245.029V114.574C245.029 117.954 244.421 120.992 243.205 123.688C241.989 126.34 240.309 128.437 238.165 129.977C236.053 131.475 233.653 132.223 230.965 132.223Z" fill="white"/>
<path d="M180.485 131.838V86.9136H194.261C196.725 86.9136 198.949 87.4698 200.933 88.5822C202.949 89.6519 204.677 91.1921 206.117 93.2031C207.589 95.1712 208.709 97.5244 209.477 100.263C210.245 103.001 210.629 106.039 210.629 109.376C210.629 112.67 210.245 115.708 209.477 118.489C208.709 121.227 207.605 123.602 206.165 125.613C204.725 127.581 202.997 129.121 200.981 130.234C198.965 131.303 196.725 131.838 194.261 131.838H180.485ZM187.685 124.843L186.917 123.174H194.021C195.461 123.174 196.757 122.853 197.909 122.212C199.061 121.527 200.037 120.607 200.837 119.452C201.669 118.254 202.293 116.799 202.709 115.088C203.125 113.376 203.333 111.472 203.333 109.376C203.333 107.279 203.125 105.397 202.709 103.728C202.293 102.017 201.669 100.562 200.837 99.3641C200.037 98.1662 199.061 97.2463 197.909 96.6045C196.757 95.9199 195.461 95.5776 194.021 95.5776H186.773L187.685 94.0374V124.843Z" fill="white"/>
<path d="M150.016 131.838V86.9136H172.72V95.3851H157.024V123.367H173.056V131.838H150.016ZM153.376 113.034V104.819H170.416V113.034H153.376Z" fill="white"/>
<path d="M134.059 131.838V86.9136H141.259V131.838H134.059ZM112.891 131.838V86.9136H120.091V131.838H112.891ZM115.771 113.804L115.819 105.076H137.755V113.804H115.771Z" fill="white"/>
<path d="M94.5336 132.48C92.0696 132.48 89.7976 131.924 87.7176 130.811C85.6696 129.656 83.8776 128.052 82.3416 125.998C80.8376 123.902 79.6696 121.441 78.8376 118.618C78.0056 115.751 77.5896 112.628 77.5896 109.248C77.5896 105.953 78.0216 102.915 78.8856 100.134C79.7496 97.3104 80.9656 94.8716 82.5336 92.8179C84.1016 90.7215 85.9416 89.0956 88.0536 87.9404C90.1656 86.7852 92.4536 86.2076 94.9176 86.2076C96.5176 86.2076 98.0856 86.5071 99.6216 87.1061C101.19 87.6623 102.614 88.4966 103.894 89.609C105.206 90.7215 106.326 92.0478 107.254 93.5881L102.742 100.263C101.974 99.2358 101.174 98.3587 100.342 97.6313C99.5416 96.8612 98.6776 96.2836 97.7496 95.8985C96.8536 95.4706 95.8936 95.2567 94.8696 95.2567C93.4936 95.2567 92.1976 95.599 90.9816 96.2836C89.7976 96.9681 88.7576 97.9308 87.8616 99.1716C86.9656 100.37 86.2456 101.846 85.7016 103.6C85.1896 105.311 84.9336 107.215 84.9336 109.312C84.9336 111.451 85.1896 113.398 85.7016 115.152C86.2136 116.863 86.9336 118.339 87.8616 119.58C88.7896 120.778 89.8936 121.719 91.1736 122.404C92.4856 123.046 93.9256 123.367 95.4936 123.367C96.5176 123.367 97.5096 123.174 98.4696 122.789C99.4296 122.404 100.31 121.869 101.11 121.185C101.942 120.5 102.678 119.709 103.318 118.81L106.822 126.319C106.054 127.474 105.014 128.522 103.702 129.464C102.422 130.405 100.982 131.154 99.3816 131.71C97.7816 132.223 96.1656 132.48 94.5336 132.48Z" fill="white"/>
<path d="M60.4124 132.48C58.3324 132.48 56.4284 132.138 54.7004 131.453C53.0044 130.769 51.4844 129.763 50.1404 128.437C48.8284 127.11 47.6444 125.506 46.5884 123.623L51.1004 116.756C52.6684 119.666 54.2204 121.655 55.7564 122.725C57.3244 123.752 59.0204 124.265 60.8444 124.265C61.8364 124.265 62.7164 124.094 63.4844 123.752C64.2844 123.367 64.9084 122.832 65.3564 122.147C65.8044 121.463 66.0284 120.65 66.0284 119.709C66.0284 119.024 65.9164 118.404 65.6924 117.847C65.4684 117.248 65.1484 116.735 64.7324 116.307C64.3164 115.837 63.8204 115.43 63.2444 115.088C62.6684 114.703 62.0284 114.382 61.3244 114.125C60.6204 113.826 59.8524 113.59 59.0204 113.419C57.2284 112.863 55.6604 112.2 54.3164 111.43C52.9724 110.617 51.8524 109.633 50.9564 108.477C50.0604 107.279 49.3884 105.932 48.9404 104.434C48.5244 102.937 48.3164 101.247 48.3164 99.3642C48.3164 97.4388 48.6364 95.6632 49.2764 94.0374C49.9164 92.3688 50.7964 90.9355 51.9164 89.7375C53.0684 88.5395 54.3804 87.6196 55.8524 86.9778C57.3564 86.336 58.9404 86.0151 60.6044 86.0151C62.6524 86.0151 64.4444 86.336 65.9804 86.9778C67.5164 87.5768 68.8444 88.4539 69.9644 89.6091C71.1164 90.7643 72.0764 92.1762 72.8444 93.8449L68.2844 99.7492C67.6124 98.5513 66.8764 97.5458 66.0764 96.7329C65.3084 95.9199 64.4604 95.321 63.5324 94.9359C62.6364 94.508 61.7084 94.2941 60.7484 94.2941C59.6924 94.2941 58.7804 94.4866 58.0124 94.8717C57.2444 95.214 56.6364 95.7274 56.1884 96.412C55.7724 97.0965 55.5644 97.9309 55.5644 98.9149C55.5644 99.6851 55.7084 100.37 55.9964 100.969C56.2844 101.568 56.7004 102.102 57.2444 102.573C57.7884 103.001 58.4444 103.386 59.2124 103.728C59.9804 104.071 60.8284 104.37 61.7564 104.627C63.5164 105.097 65.1004 105.718 66.5084 106.488C67.9164 107.258 69.1164 108.199 70.1084 109.312C71.1324 110.381 71.9164 111.665 72.4604 113.162C73.0044 114.617 73.2764 116.264 73.2764 118.104C73.2764 121.142 72.7324 123.73 71.6444 125.87C70.5564 128.009 69.0524 129.656 67.1324 130.811C65.2124 131.924 62.9724 132.48 60.4124 132.48Z" fill="white"/>
</g>
<defs>
<clipPath id="clip0_3_26">
<rect width="493" height="689" fill="white" transform="matrix(1 0 0 -1 0 689)"/>
</clipPath>
</defs>
</svg>
