<svg width="20" height="20" viewBox="0 0 20 20" fill="none" xmlns="http://www.w3.org/2000/svg">
<path d="M1.61278 6H9.38722C9.72555 6 10 6.26143 10 6.58371V11.2872C10 11.6095 9.72555 11.8709 9.38722 11.8709H5.32019L4.08754 13L2.80757 11.8709H1.61278C1.27445 11.8709 1 11.6095 1 11.2872V6.58371C1 6.26143 1.27445 6 1.61278 6Z" fill="#8CAAFF"/>
<path d="M4.08673 13L2.8071 11.8705H1.61261C1.27438 11.8705 1 11.609 1 11.2866V6.5839C1 6.26151 1.27438 6 1.61261 6H9.38739C9.72562 6 10 6.26151 10 6.5839V11.2889C10 11.6113 9.72562 11.8728 9.38739 11.8728H5.32142L4.08673 13ZM1.91774 10.9958H3.16662L4.0749 11.7961L4.95007 10.9958H9.0799V6.87472H1.91774V10.9958Z" fill="#333333"/>
<path d="M6.60271 3H18.3996C18.7311 3 19 3.26893 19 3.60046V12.8509C19 13.1824 18.7311 13.4513 18.3996 13.4513H14.2965L12.6854 15L11.0118 13.4513H6.60039C6.2689 13.4513 6 13.1824 6 12.8509V3.60046C6.00232 3.26893 6.27122 3 6.60271 3Z" fill="white"/>
<path d="M13.1909 16L11.3029 14.2827H7.184C6.53257 14.2827 6 13.7619 6 13.1198V4.16284C6 3.52305 6.53029 3 7.184 3H18.816C19.4674 3 20 3.52081 20 4.16284V13.1198C20 13.7596 19.4697 14.2827 18.816 14.2827H15.008L13.1909 16ZM7.184 4.16284V13.1198H11.7646L13.1749 14.4017L14.5326 13.1198H18.816V4.16284H7.184Z" fill="#333333"/>
<path d="M14.4085 8.87179H13.023L13.0184 9.15128C13.0115 9.51282 12.7468 9.80256 12.4223 9.80256H12.42C12.1024 9.80256 11.8446 9.51538 11.8446 9.16154V9.14872L11.8608 8.19744C11.8677 7.84359 12.1208 7.55897 12.4338 7.54615C12.4522 7.54359 12.4707 7.54359 12.4891 7.54359H13.8078V6.3282H11.5961C11.267 6.3282 11 6.03077 11 5.6641C11 5.29744 11.267 5 11.5961 5H14.4039C14.733 5 15 5.29744 15 5.6641V8.20769C15 8.57179 14.7353 8.86667 14.4085 8.87179ZM11.8239 11.3359V11.2692C11.8239 10.9026 12.0909 10.6051 12.42 10.6051C12.7491 10.6051 13.0161 10.9026 13.0161 11.2692V11.3359C13.0161 11.7026 12.7491 12 12.42 12C12.0909 12 11.8239 11.7026 11.8239 11.3359Z" fill="#333333"/>
</svg>
